<svg id="Layer_1" data-name="Layer 1" xmlns="http://www.w3.org/2000/svg" viewBox="0 0 47.46 13"><defs><style>.cls-1{fill:#231f20;}.cls-2{fill:#f26522;}</style></defs><title>anodeyes</title><path class="cls-1" d="M118.44,70.46h1.32v5.71h-1.32v-0.6a2.53,2.53,0,0,1-3.71-.09A3.18,3.18,0,0,1,114,73.3a3.08,3.08,0,0,1,.77-2.14,2.47,2.47,0,0,1,1.92-.86,2.43,2.43,0,0,1,1.79.82V70.46Zm-3.13,2.84a2,2,0,0,0,.44,1.34,1.44,1.44,0,0,0,1.14.52,1.51,1.51,0,0,0,1.18-.5,2.17,2.17,0,0,0,0-2.65,1.49,1.49,0,0,0-1.17-.51,1.46,1.46,0,0,0-1.14.52A1.9,1.9,0,0,0,115.31,73.3Z" transform="translate(-113.96 -66.27)"/><path class="cls-1" d="M120.7,70.46H122V71a2.16,2.16,0,0,1,1.56-.69,2,2,0,0,1,1.55.63,2.57,2.57,0,0,1,.48,1.74v3.5H124.3V73a2.09,2.09,0,0,0-.23-1.17,1,1,0,0,0-.83-0.33,1,1,0,0,0-.93.43,3,3,0,0,0-.27,1.49v2.75H120.7V70.46Z" transform="translate(-113.96 -66.27)"/><path class="cls-1" d="M126.3,73.27a2.84,2.84,0,0,1,.88-2.1,3.12,3.12,0,0,1,4.32,0,3.06,3.06,0,0,1,0,4.29,3,3,0,0,1-2.19.86,2.9,2.9,0,0,1-2.15-.88A3,3,0,0,1,126.3,73.27Zm1.35,0a1.92,1.92,0,0,0,.46,1.35,1.78,1.78,0,0,0,2.47,0,2.14,2.14,0,0,0,0-2.66,1.75,1.75,0,0,0-2.46,0A1.83,1.83,0,0,0,127.64,73.3Z" transform="translate(-113.96 -66.27)"/><path class="cls-1" d="M137.5,66.27h1.32v9.9H137.5v-0.6a2.46,2.46,0,0,1-1.76.76,2.51,2.51,0,0,1-1.95-.86A3.18,3.18,0,0,1,133,73.3a3.08,3.08,0,0,1,.77-2.13,2.47,2.47,0,0,1,3.71,0V66.27Zm-3.13,7a2,2,0,0,0,.44,1.34,1.44,1.44,0,0,0,1.14.52,1.51,1.51,0,0,0,1.18-.5,2.17,2.17,0,0,0,0-2.65,1.49,1.49,0,0,0-1.17-.51,1.46,1.46,0,0,0-1.14.52A1.9,1.9,0,0,0,134.38,73.3Z" transform="translate(-113.96 -66.27)"/><path class="cls-2" d="M145,73.62h-4.09a1.73,1.73,0,0,0,.46,1.12,1.39,1.39,0,0,0,1,.41,1.35,1.35,0,0,0,.81-0.23,3.33,3.33,0,0,0,.72-0.87L145,74.67a4.4,4.4,0,0,1-.54.75,2.9,2.9,0,0,1-.62.52,2.47,2.47,0,0,1-.71.3,3.45,3.45,0,0,1-.83.09,2.69,2.69,0,0,1-2.05-.82,3.08,3.08,0,0,1-.77-2.19,3.16,3.16,0,0,1,.75-2.19,2.86,2.86,0,0,1,4,0,3.16,3.16,0,0,1,.73,2.21v0.31Zm-1.35-1.08a1.26,1.26,0,0,0-1.33-1.05,1.37,1.37,0,0,0-.45.07,1.29,1.29,0,0,0-.38.21,1.34,1.34,0,0,0-.3.33,1.54,1.54,0,0,0-.19.44h2.65Z" transform="translate(-113.96 -66.27)"/><path class="cls-2" d="M147.53,75.11L145,70.46h1.53l1.75,3.28,1.63-3.28h1.49l-4.55,8.81H145.3Z" transform="translate(-113.96 -66.27)"/><path class="cls-2" d="M156.77,73.62h-4.09a1.73,1.73,0,0,0,.46,1.12,1.39,1.39,0,0,0,1,.41,1.35,1.35,0,0,0,.81-0.23,3.33,3.33,0,0,0,.72-0.87l1.11,0.62a4.43,4.43,0,0,1-.54.75,2.9,2.9,0,0,1-.62.52,2.47,2.47,0,0,1-.71.3,3.45,3.45,0,0,1-.83.09,2.69,2.69,0,0,1-2.05-.82,3.08,3.08,0,0,1-.77-2.19,3.16,3.16,0,0,1,.75-2.19,2.86,2.86,0,0,1,4,0,3.16,3.16,0,0,1,.73,2.21v0.31Zm-1.35-1.08a1.26,1.26,0,0,0-1.33-1.05,1.37,1.37,0,0,0-.45.07,1.29,1.29,0,0,0-.38.21,1.34,1.34,0,0,0-.3.33,1.54,1.54,0,0,0-.19.44h2.65Z" transform="translate(-113.96 -66.27)"/><path class="cls-2" d="M161.05,71.43L160,72a0.76,0.76,0,0,0-.64-0.53,0.44,0.44,0,0,0-.31.12,0.4,0.4,0,0,0-.13.31,1,1,0,0,0,.76.65,4.54,4.54,0,0,1,1.41.83,1.42,1.42,0,0,1,.36,1,1.8,1.8,0,0,1-.61,1.38,2.19,2.19,0,0,1-3.46-.87l1.13-.52a2.45,2.45,0,0,0,.36.52,0.82,0.82,0,0,0,.57.22,0.57,0.57,0,0,0,.67-0.61,0.84,0.84,0,0,0-.52-0.66l-0.4-.19-0.4-.19a2.47,2.47,0,0,1-.81-0.56,1.39,1.39,0,0,1-.3-0.92,1.63,1.63,0,0,1,.51-1.23,1.79,1.79,0,0,1,1.27-.49A1.73,1.73,0,0,1,161.05,71.43Z" transform="translate(-113.96 -66.27)"/></svg>